<?xml version="1.0" encoding="utf-8"?>
<!-- Generator: Adobe Illustrator 15.0.0, SVG Export Plug-In . SVG Version: 6.00 Build 0)  -->
<!DOCTYPE svg PUBLIC "-//W3C//DTD SVG 1.1//EN" "http://www.w3.org/Graphics/SVG/1.1/DTD/svg11.dtd">
<svg version="1.1" id="Layer_1" xmlns="http://www.w3.org/2000/svg" xmlns:xlink="http://www.w3.org/1999/xlink" x="0px" y="0px"
	 width="451.5px" height="100.5px" viewBox="0 0 451.5 100.5" enable-background="new 0 0 451.5 100.5" xml:space="preserve">
<g>
	<g>
		<path fill="#005F94" d="M351.346,36.941l-8.217,10.123c4.505,3.695,7.385,9.302,7.385,15.57c0,11.102-9.032,20.133-20.133,20.133
			c-10.094,0-18.475-7.466-19.913-17.166l-13.106,0.273c1.635,16.779,15.818,29.938,33.02,29.938
			c18.294,0,33.179-14.884,33.179-33.179C363.56,52.285,358.795,43.031,351.346,36.941z"/>
		<path fill="#F15F5B" d="M325.688,25.487l-2.703,4.81l-5.963,10.609l17.289-0.172l0.499-0.005l-0.468,2.166l-0.1,0.462l-1.621,7.51
			l-0.735,3.409l1.965-2.411l5.785-7.101l8.343-10.237l3.7-4.542l-8.712,0.085l-2.685,0.026l-3.238,0.032
			c-0.337-0.069-0.679-0.124-1.02-0.182l3.268-4.459L354.45,4.795l-46.588,0.131L303.04,17.7h27.025L325.688,25.487z"/>
	</g>
	<g>
		<path fill="#005F94" d="M384.274,16.919h40.828c-0.685,2.964-1.77,6.571-3.472,10.12c-4.822,10.059-12.069,14.948-22.154,14.948
			h-13.578l8.704,10.421c10.436,12.493,24.889,29.367,37.482,43.981h16.774c-11.397-13.192-25.687-29.807-37.319-43.571
			c9.369-3.121,16.764-10.113,21.722-20.665c4.893-10.415,5.601-20.746,5.629-21.18l0.431-6.755h-67.747v92.171h12.7V16.919z"/>
	</g>
	<g>
		<polygon fill="#005F94" points="257.421,64.41 229.615,5.892 215.555,5.892 257.762,94.717 297.55,5.892 283.634,5.892 		"/>
	</g>
	<path fill="#005F94" d="M176.761,96.186c-7.712,0-15.375-1.982-22.16-5.733c-22.137-12.238-30.19-40.205-17.953-62.341
		C144.725,13.5,160.122,4.423,176.83,4.423c7.712,0,15.375,1.983,22.16,5.734c22.137,12.237,30.191,40.204,17.954,62.342
		C208.867,87.109,193.469,96.186,176.761,96.186z M176.83,19.718c-11.144,0-21.412,6.051-26.797,15.792
		c-8.157,14.756-2.789,33.398,11.967,41.557c4.525,2.501,9.629,3.823,14.76,3.823c11.144,0,21.413-6.051,26.798-15.792
		c8.157-14.756,2.788-33.398-11.968-41.556C187.065,21.041,181.96,19.718,176.83,19.718z"/>
	<g>
		<path fill="#005F94" d="M48.751,80.891c-5.131,0-10.235-1.322-14.76-3.823c-14.756-8.158-20.125-26.8-11.967-41.557
			c5.385-9.741,15.653-15.792,26.796-15.792c5.104,0,10.183,1.311,14.692,3.788l5.491-14.374C62.724,6.05,55.793,4.423,48.82,4.423
			c-16.708,0-32.105,9.077-40.182,23.688C-3.6,50.248,4.454,78.214,26.591,90.452c6.785,3.751,14.448,5.733,22.16,5.733
			c7.531,0,14.792-1.849,21.241-5.213l-7.615-13.279C58.213,79.761,53.564,80.891,48.751,80.891z"/>
	</g>
	<polygon fill="#005F94" points="134.104,95.204 79.146,95.204 79.146,5.405 93.25,5.405 93.25,81.101 134.104,81.101 	"/>
</g>
</svg>
